<svg xmlns="http://www.w3.org/2000/svg" viewBox="0 0 64 64" fill="none">
  <rect width="64" height="64" rx="14" fill="#07131d"/>
  <circle cx="45" cy="17" r="9" fill="#ff8f6b"/>
  <path d="M29 52c0-11-1-20-2-26" stroke="#2fd6c3" stroke-width="5" stroke-linecap="round"/>
  <path d="M27 26c-7-5-14-5-19-2 7 1 12 3 18 6" stroke="#2fd6c3" stroke-width="4.5" stroke-linecap="round" fill="none"/>
  <path d="M27 26c-2-8-8-12-14-12 5 4 8 9 11 14" stroke="#2fd6c3" stroke-width="4.5" stroke-linecap="round" fill="none"/>
  <path d="M27 26c2-7 8-10 15-9-6 3-9 7-12 11" stroke="#2fd6c3" stroke-width="4.5" stroke-linecap="round" fill="none"/>
  <path d="M27 26c7-2 14 0 18 5-7-1-13-1-18-1" stroke="#2fd6c3" stroke-width="4.5" stroke-linecap="round" fill="none"/>
  <path d="M10 52c4-3 8-3 12 0s8 3 12 0 8-3 12 0 6 2 8 1" stroke="#4cc9f0" stroke-width="4" stroke-linecap="round" fill="none"/>
</svg>
